<?xml version="1.0" encoding="utf-8"?>
<!-- Generator: Adobe Illustrator 26.3.1, SVG Export Plug-In . SVG Version: 6.00 Build 0)  -->
<svg version="1.1" id="Layer_1" xmlns="http://www.w3.org/2000/svg" xmlns:xlink="http://www.w3.org/1999/xlink" x="0px" y="0px"
	 viewBox="0 0 32 32" style="enable-background:new 0 0 32 32;" xml:space="preserve">
<style type="text/css">
	.st0{fill:#FBB03B;}
	.st1{fill:#E7131A;}
	.st2{fill:#F2220D;}
	.st3{fill:#FFFFFF;}
</style>
<g>
	<path class="st0" d="M8.82,24.1l9.44,5.45c1.33,0.77,3.04,0.31,3.81-1.02c0.24-0.42,0.37-0.9,0.37-1.39v-10.9
		c0-1.54-1.25-2.79-2.79-2.79c-0.49,0-0.97,0.13-1.39,0.37l-9.44,5.45c-1.33,0.77-1.79,2.48-1.02,3.81
		C8.04,23.51,8.39,23.86,8.82,24.1"/>
	<path class="st1" d="M8.88,12.73l9.32,5.38c1.35,0.78,3.08,0.32,3.86-1.03c0.25-0.43,0.38-0.92,0.38-1.41V4.9
		c0-1.56-1.27-2.83-2.83-2.83c-0.5,0-0.98,0.13-1.41,0.38L8.88,7.83c-1.35,0.78-1.82,2.51-1.03,3.86
		C8.09,12.13,8.45,12.48,8.88,12.73"/>
	<g>
		<path class="st2" d="M22.41,16.04c0-0.06,0-0.12,0-0.18c0-1.93-2.41-3.05-4.16-2.04l-3.74,2.16l3.69,2.13
			C19.97,19.14,22.41,18,22.41,16.04z"/>
		<path class="st3" d="M19.65,18.66c-0.54,0-1.07-0.14-1.54-0.41l-3.6-2.27l3.66-2.3c0.96-0.54,2.14-0.54,3.09,0.02
			c0.83,0.48,1.31,1.27,1.31,2.16l0,0.18c0,0.91-0.49,1.71-1.33,2.19C20.76,18.52,20.21,18.66,19.65,18.66z M15.17,15.99l3.11,1.99
			c0.87,0.49,1.94,0.49,2.8-0.02c0.74-0.43,1.17-1.13,1.17-1.91l0-0.18c0-0.77-0.42-1.46-1.15-1.88c-0.85-0.5-1.9-0.5-2.76-0.02
			L15.17,15.99z"/>
	</g>
	<path class="st3" d="M19.95,15.14c0.46,0,0.83,0.37,0.83,0.83c0,0.46-0.37,0.83-0.83,0.83c-0.46,0-0.83-0.37-0.83-0.83
		C19.12,15.51,19.49,15.14,19.95,15.14C19.95,15.14,19.95,15.14,19.95,15.14"/>
</g>
</svg>
